HIERARCHY
ROOT Hips
{
  OFFSET -35.2597 29.1586 114.425
  CHANNELS 6 Xposition Yposition Zposition Zrotation Xrotation Yrotation
  JOINT LeftUpLeg
  {
    OFFSET 8.64259 1.95398 -2.38835
    CHANNELS 3 Zrotation Xrotation Yrotation
    JOINT LeftLeg
    {
      OFFSET 43.7702 0 0
      CHANNELS 3 Zrotation Xrotation Yrotation
      JOINT LeftFoot
      {
        OFFSET 40.6238 0 0
        CHANNELS 3 Zrotation Xrotation Yrotation
        JOINT LeftToeBase
        {
          OFFSET 12.7242 0 0
          CHANNELS 3 Zrotation Xrotation Yrotation
          End Site
          {
            OFFSET 0 0 0
          }
        }
      }
    }
  }
  JOINT RightUpLeg
  {
    OFFSET -8.2249 1.95398 -2.59336
    CHANNELS 3 Zrotation Xrotation Yrotation
    JOINT RightLeg
    {
      OFFSET 43.5653 0 0
      CHANNELS 3 Zrotation Xrotation Yrotation
      JOINT RightFoot
      {
        OFFSET 40.6238 0 0
        CHANNELS 3 Zrotation Xrotation Yrotation
        JOINT RightToeBase
        {
          OFFSET 12.7242 0 0
          CHANNELS 3 Zrotation Xrotation Yrotation
          End Site
          {
            OFFSET 0 0 0
          }
        }
      }
    }
  }
  JOINT Spine
  {
    OFFSET 0.165834 0.87714 6.61349
    CHANNELS 3 Zrotation Xrotation Yrotation
    JOINT Spine1
    {
      OFFSET 7.38963 1.71661e-005 0
      CHANNELS 3 Zrotation Xrotation Yrotation
      JOINT Spine2
      {
        OFFSET 11.9445 1.14441e-005 0
        CHANNELS 3 Zrotation Xrotation Yrotation
        JOINT Spine3
        {
          OFFSET 14.7254 4.19617e-005 0
          CHANNELS 3 Zrotation Xrotation Yrotation
          JOINT Spine4
          {
            OFFSET 10.9679 0 0
            CHANNELS 3 Zrotation Xrotation Yrotation
            JOINT RightShoulder
            {
              OFFSET 2.46616 -1.6653 3.69651
              CHANNELS 3 Zrotation Xrotation Yrotation
              JOINT RightArm
              {
                OFFSET 13.0012 0 0
                CHANNELS 3 Zrotation Xrotation Yrotation
                JOINT RightForeArm
                {
                  OFFSET 28.7848 1.62311e-005 0
                  CHANNELS 3 Zrotation Xrotation Yrotation
                  JOINT RightHand
                  {
                    OFFSET 26.5688 1.62095e-005 0
                    CHANNELS 3 Zrotation Xrotation Yrotation
                    End Site
                    {
                      OFFSET 0 0 0
                    }
                  }
                }
              }
            }
            JOINT LeftShoulder
            {
              OFFSET 2.38034 -1.29275 -3.7523
              CHANNELS 3 Zrotation Xrotation Yrotation
              JOINT LeftArm
              {
                OFFSET 16.3182 6.07031e-005 0
                CHANNELS 3 Zrotation Xrotation Yrotation
                JOINT LeftForeArm
                {
                  OFFSET 27.0901 0 0
                  CHANNELS 3 Zrotation Xrotation Yrotation
                  JOINT LeftHand
                  {
                    OFFSET 24.5451 1.51738e-005 0
                    CHANNELS 3 Zrotation Xrotation Yrotation
                    End Site
                    {
                      OFFSET 0 0 0
                    }
                  }
                }
              }
            }
            JOINT Neck
            {
              OFFSET 5.0226 -0.0266342 0
              CHANNELS 3 Zrotation Xrotation Yrotation
              JOINT Head
              {
                OFFSET 6.69364 2.86102e-005 0
                CHANNELS 3 Zrotation Xrotation Yrotation
                End Site
                {
                  OFFSET 0 0 0
                }
              }
            }
          }
        }
      }
    }
  }
}
MOTION
Frames:	10
Frame Time:	0.0416667
26.964 98.0687 -96.8375 -178.2 -81.1285 178.903 -172.624 -3.30707 85.9093 -26.6961 12.2521 -3.38292 81.2616 13.9212 -4.13128 19.2484 -10.0761 8.23791 175.092 21.285 87.6636 -30.5129 -6.60891 -0.527068 65.9237 -3.39011 -2.30463 16.591 2.72832 6.18334 -0.456542 8.24493 -90.042 10.3883 -0.928583 0.0015939 -1.28235 -0.927611 0.0424644 -23.8201 -0.886137 -0.277571 -3.80747 -0.886144 -0.277583 87.2626 -39.4875 -108.313 35.8305 10.5721 -4.91616 -5.31887 -42.2815 -5.46145 -20.4206 2.2796 -18.2479 -86.6308 -50.8928 83.9232 -25.6228 -11.4849 -27.9457 2.68318 17.9412 -3.7385 9.00808 -1.43664 -17.7835 -11.818 1.85433 -6.82455 -4.3027 2.06264 1.76821 
27.9744 98.909 -100.43 -158.052 -79.7037 -162.126 -174.341 -3.39364 82.7932 -23.3298 7.52209 -3.74224 77.6429 11.3933 -2.47519 16.25 -10.4692 5.84379 175.6 19.5757 86.1193 -42.8447 -8.23704 -2.62406 67.648 -4.87932 -1.69556 19.5841 2.339 4.21413 0.0786484 8.24988 -89.5556 10.3718 0.360155 0.849934 -1.29941 0.397218 0.833262 -23.8323 0.0880777 0.918879 -3.81965 0.0880753 0.918871 86.8108 -37.4485 -109.858 38.779 9.4394 -4.58225 -5.44826 -44.1103 -5.53948 -20.9769 2.62257 -19.7802 -86.4033 -53.5399 84.6503 -22.0117 -14.1301 -17.9483 2.71375 19.1 -3.75892 4.85438 -0.745295 -14.6131 -13.4057 1.74789 -6.40888 -3.41387 1.91316 -0.456179 
28.4855 99.3898 -103.228 -152.935 -78.92 -157.272 -175.607 -2.62744 81.5174 -21.1101 5.30354 -3.18324 74.954 8.96449 -2.80651 14.7485 -11.0578 5.31277 175.207 14.3196 84.9761 -53.0208 -9.38471 -3.88364 67.5504 -5.24087 -3.80336 22.1122 0.498584 6.5737 0.456979 8.15815 -89.3272 10.5496 1.21936 1.22789 -1.12129 1.27221 1.17303 -23.6541 0.793991 1.53754 -3.64142 0.794 1.53754 86.8361 -36.0506 -110.356 40.9832 8.71119 -3.79103 -5.4413 -44.0173 -5.53551 -23.5413 3.17875 -20.8089 -86.2164 -56.4665 85.3241 -18.8952 -15.7813 -5.24709 2.64247 15.1509 -3.80344 1.11387 -0.361361 -13.2514 -13.4539 0.721156 -5.22895 -3.51539 0.905787 -3.0561 
28.8056 99.3655 -105.708 -148.297 -79.1668 -153.491 -176.137 -0.134378 80.2713 -21.1907 5.20903 -3.3149 73.562 8.08773 -1.03611 12.8417 -11.749 4.56739 173.823 7.40389 82.8814 -57.6769 -12.3973 -4.60074 65.9621 -4.12084 -2.03402 22.2601 0.93547 5.18234 0.809938 7.92439 -89.038 11.0067 2.05808 1.71748 -0.663636 2.13167 1.62524 -23.197 1.4469 2.25649 -3.1844 1.44689 2.25649 86.6596 -35.3299 -110.964 42.8505 8.22639 -2.64796 -5.33245 -42.4812 -5.46923 -23.9738 3.17411 -20.4913 -85.5636 -57.9043 86.4153 -18.6358 -15.8875 6.26975 2.44473 7.8206 -3.61481 5.78649 -0.304562 -7.13739 -13.5987 -0.288836 -5.47372 -3.71951 -0.0666507 -4.69259 
28.5026 98.9382 -108.807 -144.177 -79.4995 -150.097 -175.179 3.60147 80.5702 -23.3456 5.45476 -4.59902 72.5243 6.98236 -1.87165 13.2725 -11.5601 4.69068 172.541 -0.47987 82.1925 -55.5093 -19.6922 -5.27532 65.494 -4.0275 -2.32561 24.1366 -0.32888 6.90352 1.0961 7.72634 -88.7303 11.3923 2.77345 2.24845 -0.277453 2.8697 2.12419 -22.8107 1.96979 2.97775 -2.79807 1.96979 2.97775 86.6701 -35.3025 -110.956 44.3991 7.67979 -2.38899 -5.26764 -41.5344 -5.43114 -23.7612 3.31377 -21.3076 -85.0365 -58.2076 87.1782 -17.7322 -16.0845 14.5317 2.36845 5.10082 -3.41542 3.68515 -0.200586 -6.4018 -12.6618 -0.834863 -6.40315 -4.63493 -0.477212 -5.59559 
28.4853 98.4864 -113.402 -137.88 -78.4552 -144.721 -174.956 7.52611 80.1469 -24.9359 3.37782 -5.15964 70.4412 4.90647 -2.6879 11.5713 -12.5184 4.4955 172.66 -8.19005 81.9085 -47.3513 -29.0526 -7.17501 65.9984 -4.67463 -2.43309 28.06 -1.92752 7.48612 1.39025 7.74069 -88.4616 11.3459 3.48362 2.71589 -0.322896 3.59972 2.5599 -22.8572 2.50688 3.63682 -2.84452 2.50689 3.63682 86.3922 -35.4308 -111.405 44.7392 7.19144 -3.76764 -5.36388 -42.9341 -5.48856 -25.0051 3.4991 -21.3174 -84.5955 -57.804 87.7429 -19.0543 -15.8306 16.5397 2.37091 5.21623 -3.4163 2.3186 -0.157551 -5.98607 -12.0221 -1.15044 -7.30197 -3.35204 -0.796401 -5.26049 
28.5406 98.023 -120.062 -128.979 -76.9672 -136.112 -175.138 11.6762 80.2766 -23.1994 1.08009 -5.03662 65.7374 1.82563 -2.59864 9.97473 -13.1766 3.98791 173.53 -10.6167 82.7858 -39.0601 -28.3518 -7.95395 72.4088 -9.70426 -3.82953 34.7499 -4.84919 10.5201 1.63511 7.8846 -88.477 11.0548 3.961 2.64968 -0.612508 4.07376 2.47267 -23.1565 2.98206 3.71739 -3.14386 2.98207 3.71739 87.1163 -33.9069 -110.715 43.7943 6.73575 -7.13279 -5.75457 -48.0437 -5.73932 -26.2828 3.43488 -20.2068 -84.7381 -59.77 87.7551 -19.5415 -15.7065 11.9612 2.33604 3.58001 -3.37359 1.17689 -0.212182 -8.29466 -10.4863 -1.22567 -4.31703 -2.64718 -0.925832 -6.73954 
28.5422 97.294 -128.349 -126.673 -76.4479 -131.3 -175.308 16.2362 83.3973 -20.7769 -0.896691 -3.87383 61.0357 -1.84208 -4.12682 13.38 -12.6052 6.2306 175.769 -8.77263 86.9582 -36.0255 -25.9654 -6.97177 79.1241 -15.2053 -5.54421 33.2711 -3.433 6.41127 1.56282 8.12507 -88.9631 10.5979 3.58939 1.73646 -1.06902 3.66232 1.57665 -23.623 2.90169 2.73527 -3.61039 2.90169 2.73527 86.9757 -32.4692 -111.585 40.8628 7.27047 -10.5108 -5.90998 -49.8401 -5.8468 -25.3722 4.13578 -23.9035 -84.8969 -63.3025 87.9078 -15.9853 -16.71 2.50228 2.49064 10.4668 -3.54163 0.273357 -0.295506 -13.1332 -9.24906 -0.496768 -0.466044 -1.51757 -0.438101 -7.37728 
28.132 97.0001 -136.707 -136.408 -78.4853 -139.201 -174.595 17.1567 86.0396 -15.0403 -3.95586 -4.11213 60.8237 0.0438139 -4.97921 22.9973 -8.79445 10.0161 176.311 -3.52023 90.6402 -37.1965 -23.4948 -4.88924 82.2192 -16.34 -3.85253 27.6225 -1.71331 7.2943 1.14964 8.43394 -89.3693 9.9923 2.57783 1.04006 -1.67643 2.62112 0.925537 -24.2234 2.14607 1.76693 -4.21078 2.14608 1.76693 86.5958 -33.1959 -111.985 38.2916 8.09831 -12.3886 -5.73702 -47.8305 -5.72766 -27.2985 4.31449 -23.2536 -85.4341 -63.706 87.249 -15.2329 -17.2806 -9.86701 2.51202 11.3926 -3.56057 4.205 -0.475682 -11.2519 -8.63096 -0.0676347 0.54665 -0.317565 -0.14296 -6.63502 
27.4883 97.7699 -143.742 -160.793 -79.075 -163.13 -173.392 19.0566 86.964 -22.6102 -4.6747 -3.67078 65.0915 3.6455 -1.54234 15.4037 -12.4719 7.89239 175.359 -0.858874 91.0281 -36.4781 -22.3309 -2.86705 78.7912 -13.6928 -4.62634 27.3605 -2.06187 8.8105 0.627668 8.77369 -89.63 9.32294 1.41786 0.627967 -2.34737 1.44411 0.564942 -24.8857 1.16357 1.02509 -4.87306 1.16358 1.02508 86.7698 -33.709 -111.435 38.2285 8.61158 -10.0524 -5.41828 -43.6964 -5.52058 -26.8349 4.26307 -23.3734 -86.1206 -60.7473 86.0042 -16.4119 -17.0411 -19.9605 2.56511 13.5206 -3.60958 5.04793 -0.60475 -12.3677 -8.99903 0.143578 -0.782399 -0.680601 0.176073 -5.37991 
